<mxfile host="Electron" agent="Mozilla/5.0 (Windows NT 10.0; Win64; x64) AppleWebKit/537.36 (KHTML, like Gecko) draw.io/27.0.5 Chrome/134.0.6998.205 Electron/35.3.0 Safari/537.36" version="27.0.5">
  <diagram name="Page-1" id="OdrLs6XfYB9gOXPZDW8T">
    <mxGraphModel dx="983" dy="580" grid="1" gridSize="10" guides="1" tooltips="1" connect="1" arrows="1" fold="1" page="1" pageScale="1" pageWidth="850" pageHeight="1100" math="0" shadow="0">
      <root>
        <mxCell id="0" />
        <mxCell id="1" parent="0" />
        <mxCell id="elPTnJ4MHi12qjTbWOh4-1" value="ChatGPT that can Google Search" style="rounded=0;whiteSpace=wrap;html=1;" vertex="1" parent="1">
          <mxGeometry x="290" y="40" width="320" height="260" as="geometry" />
        </mxCell>
        <mxCell id="elPTnJ4MHi12qjTbWOh4-33" style="edgeStyle=orthogonalEdgeStyle;rounded=0;orthogonalLoop=1;jettySize=auto;html=1;exitX=0.25;exitY=0;exitDx=0;exitDy=0;entryX=0.25;entryY=1;entryDx=0;entryDy=0;" edge="1" parent="1" source="elPTnJ4MHi12qjTbWOh4-2" target="elPTnJ4MHi12qjTbWOh4-3">
          <mxGeometry relative="1" as="geometry" />
        </mxCell>
        <mxCell id="elPTnJ4MHi12qjTbWOh4-2" value="ChatGPT.whl" style="rounded=0;whiteSpace=wrap;html=1;" vertex="1" parent="1">
          <mxGeometry x="470" y="220" width="120" height="60" as="geometry" />
        </mxCell>
        <mxCell id="elPTnJ4MHi12qjTbWOh4-34" style="edgeStyle=orthogonalEdgeStyle;rounded=0;orthogonalLoop=1;jettySize=auto;html=1;exitX=0.75;exitY=1;exitDx=0;exitDy=0;entryX=0.75;entryY=0;entryDx=0;entryDy=0;" edge="1" parent="1" source="elPTnJ4MHi12qjTbWOh4-3" target="elPTnJ4MHi12qjTbWOh4-2">
          <mxGeometry relative="1" as="geometry" />
        </mxCell>
        <mxCell id="elPTnJ4MHi12qjTbWOh4-3" value="Google Search .whl" style="whiteSpace=wrap;html=1;aspect=fixed;" vertex="1" parent="1">
          <mxGeometry x="485" y="60" width="90" height="90" as="geometry" />
        </mxCell>
        <mxCell id="elPTnJ4MHi12qjTbWOh4-4" value="pip install something -&amp;gt; pip install something.whl" style="text;html=1;align=center;verticalAlign=middle;whiteSpace=wrap;rounded=0;" vertex="1" parent="1">
          <mxGeometry x="310" y="640" width="280" height="90" as="geometry" />
        </mxCell>
        <mxCell id="elPTnJ4MHi12qjTbWOh4-5" value="Interface&lt;br&gt;(Desktop,&lt;div&gt;Web,&lt;/div&gt;&lt;div&gt;Mobile,&lt;/div&gt;&lt;div&gt;Anus,...&lt;span style=&quot;background-color: transparent; color: light-dark(rgb(0, 0, 0), rgb(255, 255, 255));&quot;&gt;)&lt;br&gt;&lt;br&gt;FULL STACK&lt;/span&gt;&lt;/div&gt;" style="rounded=0;whiteSpace=wrap;html=1;" vertex="1" parent="1">
          <mxGeometry x="190" y="340" width="520" height="300" as="geometry" />
        </mxCell>
        <mxCell id="elPTnJ4MHi12qjTbWOh4-22" style="edgeStyle=orthogonalEdgeStyle;rounded=0;orthogonalLoop=1;jettySize=auto;html=1;exitX=0.5;exitY=0;exitDx=0;exitDy=0;entryX=0;entryY=0.25;entryDx=0;entryDy=0;" edge="1" parent="1" source="elPTnJ4MHi12qjTbWOh4-6" target="elPTnJ4MHi12qjTbWOh4-7">
          <mxGeometry relative="1" as="geometry" />
        </mxCell>
        <mxCell id="elPTnJ4MHi12qjTbWOh4-23" value="localhost:backend" style="edgeLabel;html=1;align=center;verticalAlign=middle;resizable=0;points=[];" vertex="1" connectable="0" parent="elPTnJ4MHi12qjTbWOh4-22">
          <mxGeometry x="0.4711" relative="1" as="geometry">
            <mxPoint as="offset" />
          </mxGeometry>
        </mxCell>
        <mxCell id="elPTnJ4MHi12qjTbWOh4-6" value="Front end (Fluffer)" style="rounded=0;whiteSpace=wrap;html=1;" vertex="1" parent="1">
          <mxGeometry x="180" y="520" width="120" height="60" as="geometry" />
        </mxCell>
        <mxCell id="elPTnJ4MHi12qjTbWOh4-8" value="Database (I don&#39;t think we&#39;ll need this right now)" style="rounded=0;whiteSpace=wrap;html=1;" vertex="1" parent="1">
          <mxGeometry x="570" y="500" width="120" height="60" as="geometry" />
        </mxCell>
        <mxCell id="elPTnJ4MHi12qjTbWOh4-24" style="edgeStyle=orthogonalEdgeStyle;rounded=0;orthogonalLoop=1;jettySize=auto;html=1;exitX=0.25;exitY=1;exitDx=0;exitDy=0;entryX=0.75;entryY=1;entryDx=0;entryDy=0;" edge="1" parent="1" source="elPTnJ4MHi12qjTbWOh4-7" target="elPTnJ4MHi12qjTbWOh4-6">
          <mxGeometry relative="1" as="geometry" />
        </mxCell>
        <mxCell id="elPTnJ4MHi12qjTbWOh4-25" value="localhost:frontend" style="edgeLabel;html=1;align=center;verticalAlign=middle;resizable=0;points=[];" vertex="1" connectable="0" parent="elPTnJ4MHi12qjTbWOh4-24">
          <mxGeometry x="0.131" y="-2" relative="1" as="geometry">
            <mxPoint as="offset" />
          </mxGeometry>
        </mxCell>
        <mxCell id="elPTnJ4MHi12qjTbWOh4-7" value="Back End (FastAPI)" style="rounded=0;whiteSpace=wrap;html=1;" vertex="1" parent="1">
          <mxGeometry x="495" y="350" width="210" height="240" as="geometry" />
        </mxCell>
        <mxCell id="elPTnJ4MHi12qjTbWOh4-14" value="&lt;h1 style=&quot;margin-top: 0px;&quot;&gt;Phase 1&lt;/h1&gt;&lt;p&gt;How 2 full stack.&amp;nbsp;&lt;/p&gt;&lt;p&gt;&lt;span style=&quot;background-color: transparent; color: light-dark(rgb(0, 0, 0), rgb(255, 255, 255));&quot;&gt;June 15 Tentative.&lt;/span&gt;&lt;/p&gt;" style="text;html=1;whiteSpace=wrap;overflow=hidden;rounded=0;" vertex="1" parent="1">
          <mxGeometry x="60" y="720" width="180" height="120" as="geometry" />
        </mxCell>
        <mxCell id="elPTnJ4MHi12qjTbWOh4-15" value="&lt;h1 style=&quot;margin-top: 0px;&quot;&gt;Phase 2&lt;/h1&gt;&lt;p&gt;Host back end (with dummy (thicc) endpoint)&lt;/p&gt;&lt;p&gt;June 21&amp;nbsp;&lt;span style=&quot;background-color: transparent; color: light-dark(rgb(0, 0, 0), rgb(255, 255, 255));&quot;&gt;tentative&lt;/span&gt;&lt;/p&gt;" style="text;html=1;whiteSpace=wrap;overflow=hidden;rounded=0;" vertex="1" parent="1">
          <mxGeometry x="280" y="720" width="180" height="120" as="geometry" />
        </mxCell>
        <mxCell id="elPTnJ4MHi12qjTbWOh4-16" value="&lt;h1 style=&quot;margin-top: 0px;&quot;&gt;Phase 3&lt;/h1&gt;&lt;p&gt;Front end. Pretty or not, here I cum.&lt;/p&gt;&lt;p&gt;June 21 tentative&lt;/p&gt;" style="text;html=1;whiteSpace=wrap;overflow=hidden;rounded=0;" vertex="1" parent="1">
          <mxGeometry x="510" y="720" width="180" height="120" as="geometry" />
        </mxCell>
        <mxCell id="elPTnJ4MHi12qjTbWOh4-17" value="&lt;h1 style=&quot;margin-top: 0px;&quot;&gt;Phase 4&lt;/h1&gt;&lt;p&gt;How 2 connect Front end to back end&lt;/p&gt;&lt;p&gt;June 21 tentative&lt;/p&gt;" style="text;html=1;whiteSpace=wrap;overflow=hidden;rounded=0;" vertex="1" parent="1">
          <mxGeometry x="60" y="850" width="180" height="120" as="geometry" />
        </mxCell>
        <mxCell id="elPTnJ4MHi12qjTbWOh4-18" value="&lt;h1 style=&quot;margin-top: 0px;&quot;&gt;Phase 5&lt;/h1&gt;&lt;p&gt;Testing, bug fixing, future features if still in the mood to make more shit.&lt;/p&gt;&lt;p&gt;TBD after June 21&lt;/p&gt;" style="text;html=1;whiteSpace=wrap;overflow=hidden;rounded=0;" vertex="1" parent="1">
          <mxGeometry x="280" y="840" width="180" height="120" as="geometry" />
        </mxCell>
        <mxCell id="elPTnJ4MHi12qjTbWOh4-31" style="edgeStyle=orthogonalEdgeStyle;rounded=0;orthogonalLoop=1;jettySize=auto;html=1;exitX=0.25;exitY=1;exitDx=0;exitDy=0;entryX=0;entryY=0.75;entryDx=0;entryDy=0;" edge="1" parent="1" source="elPTnJ4MHi12qjTbWOh4-11" target="elPTnJ4MHi12qjTbWOh4-19">
          <mxGeometry relative="1" as="geometry" />
        </mxCell>
        <mxCell id="elPTnJ4MHi12qjTbWOh4-11" value="Celery" style="rounded=0;whiteSpace=wrap;html=1;" vertex="1" parent="1">
          <mxGeometry x="505" y="370" width="120" height="60" as="geometry" />
        </mxCell>
        <mxCell id="elPTnJ4MHi12qjTbWOh4-32" style="edgeStyle=orthogonalEdgeStyle;rounded=0;orthogonalLoop=1;jettySize=auto;html=1;exitX=0.75;exitY=0;exitDx=0;exitDy=0;entryX=1;entryY=0.25;entryDx=0;entryDy=0;" edge="1" parent="1" source="elPTnJ4MHi12qjTbWOh4-19" target="elPTnJ4MHi12qjTbWOh4-11">
          <mxGeometry relative="1" as="geometry" />
        </mxCell>
        <mxCell id="elPTnJ4MHi12qjTbWOh4-19" value="ChatGPT that can Google Search" style="rounded=0;whiteSpace=wrap;html=1;" vertex="1" parent="1">
          <mxGeometry x="580" y="520" width="120" height="60" as="geometry" />
        </mxCell>
        <mxCell id="elPTnJ4MHi12qjTbWOh4-27" style="edgeStyle=orthogonalEdgeStyle;rounded=0;orthogonalLoop=1;jettySize=auto;html=1;exitX=0.75;exitY=0.1;exitDx=0;exitDy=0;exitPerimeter=0;entryX=0;entryY=0.25;entryDx=0;entryDy=0;" edge="1" parent="1" source="elPTnJ4MHi12qjTbWOh4-26" target="elPTnJ4MHi12qjTbWOh4-6">
          <mxGeometry relative="1" as="geometry" />
        </mxCell>
        <mxCell id="elPTnJ4MHi12qjTbWOh4-26" value="User" style="shape=umlActor;verticalLabelPosition=bottom;verticalAlign=top;html=1;outlineConnect=0;" vertex="1" parent="1">
          <mxGeometry x="100" y="530" width="30" height="60" as="geometry" />
        </mxCell>
        <mxCell id="elPTnJ4MHi12qjTbWOh4-28" style="edgeStyle=orthogonalEdgeStyle;rounded=0;orthogonalLoop=1;jettySize=auto;html=1;exitX=0;exitY=0.75;exitDx=0;exitDy=0;entryX=0.5;entryY=0.5;entryDx=0;entryDy=0;entryPerimeter=0;" edge="1" parent="1" source="elPTnJ4MHi12qjTbWOh4-6" target="elPTnJ4MHi12qjTbWOh4-26">
          <mxGeometry relative="1" as="geometry" />
        </mxCell>
      </root>
    </mxGraphModel>
  </diagram>
</mxfile>
